<mxfile host="app.diagrams.net" modified="2021-08-23T16:47:06.849Z" agent="5.0 (Macintosh; Intel Mac OS X 10_15_7) AppleWebKit/537.36 (KHTML, like Gecko) Chrome/92.0.4515.159 Safari/537.36" etag="tMZNc77skmtyLLawMAdZ" version="14.9.8" type="github">
  <diagram id="A-8zLL9_sNCvFxYt3CWV" name="Page-1">
    <mxGraphModel dx="1298" dy="756" grid="1" gridSize="10" guides="1" tooltips="1" connect="1" arrows="1" fold="1" page="1" pageScale="1" pageWidth="850" pageHeight="1100" math="0" shadow="0">
      <root>
        <mxCell id="0" />
        <mxCell id="1" parent="0" />
        <mxCell id="0PGPnt0f0jF0ZXQUyRv5-21" value="AWS Cloud" style="points=[[0,0],[0.25,0],[0.5,0],[0.75,0],[1,0],[1,0.25],[1,0.5],[1,0.75],[1,1],[0.75,1],[0.5,1],[0.25,1],[0,1],[0,0.75],[0,0.5],[0,0.25]];outlineConnect=0;gradientColor=none;html=1;whiteSpace=wrap;fontSize=12;fontStyle=0;shape=mxgraph.aws4.group;grIcon=mxgraph.aws4.group_aws_cloud_alt;strokeColor=#232F3E;fillColor=none;verticalAlign=top;align=left;spacingLeft=30;fontColor=#232F3E;dashed=0;" parent="1" vertex="1">
          <mxGeometry x="60" y="210" width="720" height="780" as="geometry" />
        </mxCell>
        <mxCell id="0PGPnt0f0jF0ZXQUyRv5-3" value="&lt;b&gt;sa-east1&lt;/b&gt;" style="points=[[0,0],[0.25,0],[0.5,0],[0.75,0],[1,0],[1,0.25],[1,0.5],[1,0.75],[1,1],[0.75,1],[0.5,1],[0.25,1],[0,1],[0,0.75],[0,0.5],[0,0.25]];outlineConnect=0;gradientColor=none;html=1;whiteSpace=wrap;fontSize=12;fontStyle=0;shape=mxgraph.aws4.group;grIcon=mxgraph.aws4.group_region;strokeColor=#147EBA;fillColor=none;verticalAlign=top;align=left;spacingLeft=30;fontColor=#147EBA;dashed=1;" parent="1" vertex="1">
          <mxGeometry x="90" y="250" width="660" height="710" as="geometry" />
        </mxCell>
        <mxCell id="_YScUZxaxv9jTKmD59aY-2" value="VPC" style="points=[[0,0],[0.25,0],[0.5,0],[0.75,0],[1,0],[1,0.25],[1,0.5],[1,0.75],[1,1],[0.75,1],[0.5,1],[0.25,1],[0,1],[0,0.75],[0,0.5],[0,0.25]];outlineConnect=0;gradientColor=none;html=1;whiteSpace=wrap;fontSize=12;fontStyle=0;shape=mxgraph.aws4.group;grIcon=mxgraph.aws4.group_vpc;strokeColor=#248814;fillColor=none;verticalAlign=top;align=left;spacingLeft=30;fontColor=#AAB7B8;dashed=0;" parent="1" vertex="1">
          <mxGeometry x="130" y="320" width="580" height="520" as="geometry" />
        </mxCell>
        <mxCell id="VDcd1Ahy-NVAH4zSC_rA-13" value="" style="rounded=1;arcSize=10;dashed=1;strokeColor=#ff0000;fillColor=none;gradientColor=none;dashPattern=8 4;strokeWidth=2;" vertex="1" parent="1">
          <mxGeometry x="469.5" y="570" width="221.01" height="240" as="geometry" />
        </mxCell>
        <mxCell id="VDcd1Ahy-NVAH4zSC_rA-12" value="" style="rounded=1;arcSize=10;dashed=1;strokeColor=#ff0000;fillColor=none;gradientColor=none;dashPattern=8 4;strokeWidth=2;" vertex="1" parent="1">
          <mxGeometry x="148.99" y="570" width="221.01" height="240" as="geometry" />
        </mxCell>
        <mxCell id="_YScUZxaxv9jTKmD59aY-10" value="Application Subnet" style="points=[[0,0],[0.25,0],[0.5,0],[0.75,0],[1,0],[1,0.25],[1,0.5],[1,0.75],[1,1],[0.75,1],[0.5,1],[0.25,1],[0,1],[0,0.75],[0,0.5],[0,0.25]];outlineConnect=0;html=1;whiteSpace=wrap;fontSize=12;fontStyle=0;shape=mxgraph.aws4.group;grIcon=mxgraph.aws4.group_security_group;grStroke=0;strokeColor=#147EBA;fillColor=#E6F2F8;verticalAlign=top;align=left;spacingLeft=30;fontColor=#147EBA;dashed=0;" parent="1" vertex="1">
          <mxGeometry x="160" y="580" width="200" height="220" as="geometry" />
        </mxCell>
        <mxCell id="_YScUZxaxv9jTKmD59aY-4" value="Database subnet" style="points=[[0,0],[0.25,0],[0.5,0],[0.75,0],[1,0],[1,0.25],[1,0.5],[1,0.75],[1,1],[0.75,1],[0.5,1],[0.25,1],[0,1],[0,0.75],[0,0.5],[0,0.25]];outlineConnect=0;html=1;whiteSpace=wrap;fontSize=12;fontStyle=0;shape=mxgraph.aws4.group;grIcon=mxgraph.aws4.group_security_group;grStroke=0;strokeColor=#147EBA;fillColor=#E6F2F8;verticalAlign=top;align=left;spacingLeft=30;fontColor=#147EBA;dashed=0;" parent="1" vertex="1">
          <mxGeometry x="480" y="580" width="200" height="220" as="geometry" />
        </mxCell>
        <mxCell id="VDcd1Ahy-NVAH4zSC_rA-31" style="edgeStyle=orthogonalEdgeStyle;rounded=0;orthogonalLoop=1;jettySize=auto;html=1;entryX=0.5;entryY=0;entryDx=0;entryDy=0;entryPerimeter=0;dashed=1;strokeColor=#000000;" edge="1" parent="1" source="0PGPnt0f0jF0ZXQUyRv5-10" target="0PGPnt0f0jF0ZXQUyRv5-14">
          <mxGeometry relative="1" as="geometry" />
        </mxCell>
        <mxCell id="0PGPnt0f0jF0ZXQUyRv5-10" value="users" style="outlineConnect=0;gradientColor=none;fontColor=#545B64;strokeColor=none;fillColor=#879196;dashed=0;verticalLabelPosition=bottom;verticalAlign=top;align=center;html=1;fontSize=12;fontStyle=0;aspect=fixed;shape=mxgraph.aws4.illustration_users;pointerEvents=1" parent="1" vertex="1">
          <mxGeometry x="225" y="100" width="70" height="70" as="geometry" />
        </mxCell>
        <mxCell id="0PGPnt0f0jF0ZXQUyRv5-14" value="" style="outlineConnect=0;dashed=0;verticalLabelPosition=bottom;verticalAlign=top;align=center;html=1;shape=mxgraph.aws3.vpn_gateway;fillColor=#F58536;gradientColor=none;" parent="1" vertex="1">
          <mxGeometry x="234.49" y="290" width="50" height="52" as="geometry" />
        </mxCell>
        <mxCell id="0PGPnt0f0jF0ZXQUyRv5-26" value="" style="outlineConnect=0;dashed=0;verticalLabelPosition=bottom;verticalAlign=top;align=center;html=1;shape=mxgraph.aws3.waf;fillColor=#759C3E;gradientColor=none;" parent="1" vertex="1">
          <mxGeometry x="321.49" y="867.5" width="55.51" height="53" as="geometry" />
        </mxCell>
        <mxCell id="VDcd1Ahy-NVAH4zSC_rA-1" value="" style="outlineConnect=0;dashed=0;verticalLabelPosition=bottom;verticalAlign=top;align=center;html=1;shape=mxgraph.aws3.ec2;fillColor=#F58534;gradientColor=none;" vertex="1" parent="1">
          <mxGeometry x="230" y="620" width="50" height="43" as="geometry" />
        </mxCell>
        <mxCell id="VDcd1Ahy-NVAH4zSC_rA-6" value="" style="outlineConnect=0;dashed=0;verticalLabelPosition=bottom;verticalAlign=top;align=center;html=1;shape=mxgraph.aws3.ec2;fillColor=#F58534;gradientColor=none;" vertex="1" parent="1">
          <mxGeometry x="230" y="720" width="50" height="43" as="geometry" />
        </mxCell>
        <mxCell id="VDcd1Ahy-NVAH4zSC_rA-11" value="" style="outlineConnect=0;dashed=0;verticalLabelPosition=bottom;verticalAlign=top;align=center;html=1;shape=mxgraph.aws3.internet_gateway;fillColor=#F58536;gradientColor=none;" vertex="1" parent="1">
          <mxGeometry x="395" y="290" width="50" height="52" as="geometry" />
        </mxCell>
        <mxCell id="VDcd1Ahy-NVAH4zSC_rA-14" value="" style="outlineConnect=0;dashed=0;verticalLabelPosition=bottom;verticalAlign=top;align=center;html=1;shape=mxgraph.aws3.ec2;fillColor=#F58534;gradientColor=none;" vertex="1" parent="1">
          <mxGeometry x="550" y="620" width="50" height="43" as="geometry" />
        </mxCell>
        <mxCell id="VDcd1Ahy-NVAH4zSC_rA-16" value="" style="outlineConnect=0;dashed=0;verticalLabelPosition=bottom;verticalAlign=top;align=center;html=1;shape=mxgraph.aws3.ec2;fillColor=#F58534;gradientColor=none;" vertex="1" parent="1">
          <mxGeometry x="550" y="720" width="50" height="43" as="geometry" />
        </mxCell>
        <mxCell id="VDcd1Ahy-NVAH4zSC_rA-18" value="Public subnet" style="points=[[0,0],[0.25,0],[0.5,0],[0.75,0],[1,0],[1,0.25],[1,0.5],[1,0.75],[1,1],[0.75,1],[0.5,1],[0.25,1],[0,1],[0,0.75],[0,0.5],[0,0.25]];outlineConnect=0;gradientColor=none;html=1;whiteSpace=wrap;fontSize=12;fontStyle=0;shape=mxgraph.aws4.group;grIcon=mxgraph.aws4.group_security_group;grStroke=0;strokeColor=#248814;fillColor=#E9F3E6;verticalAlign=top;align=left;spacingLeft=30;fontColor=#248814;dashed=0;" vertex="1" parent="1">
          <mxGeometry x="295" y="400" width="250" height="120" as="geometry" />
        </mxCell>
        <mxCell id="VDcd1Ahy-NVAH4zSC_rA-19" value="" style="outlineConnect=0;dashed=0;verticalLabelPosition=bottom;verticalAlign=top;align=center;html=1;shape=mxgraph.aws3.vpc_nat_gateway;fillColor=#F58534;gradientColor=none;" vertex="1" parent="1">
          <mxGeometry x="395" y="434" width="50" height="52" as="geometry" />
        </mxCell>
        <mxCell id="VDcd1Ahy-NVAH4zSC_rA-25" value="&lt;b&gt;Servidor Linux - SAS&lt;/b&gt;" style="text;html=1;align=center;verticalAlign=middle;resizable=0;points=[];autosize=1;strokeColor=none;" vertex="1" parent="1">
          <mxGeometry x="190" y="668.75" width="130" height="20" as="geometry" />
        </mxCell>
        <mxCell id="VDcd1Ahy-NVAH4zSC_rA-26" value="&lt;b&gt;Servidor Windows&lt;/b&gt;" style="text;html=1;align=center;verticalAlign=middle;resizable=0;points=[];autosize=1;strokeColor=none;" vertex="1" parent="1">
          <mxGeometry x="200" y="770" width="120" height="20" as="geometry" />
        </mxCell>
        <mxCell id="VDcd1Ahy-NVAH4zSC_rA-27" value="&lt;b&gt;Banco de Dados - Metadados&lt;/b&gt;" style="text;html=1;align=center;verticalAlign=middle;resizable=0;points=[];autosize=1;strokeColor=none;" vertex="1" parent="1">
          <mxGeometry x="490.01" y="668.75" width="180" height="20" as="geometry" />
        </mxCell>
        <mxCell id="VDcd1Ahy-NVAH4zSC_rA-28" value="&lt;b&gt;Banco de Dados - RÃ©plicas&lt;/b&gt;" style="text;html=1;align=center;verticalAlign=middle;resizable=0;points=[];autosize=1;strokeColor=none;" vertex="1" parent="1">
          <mxGeometry x="495.01" y="770" width="170" height="20" as="geometry" />
        </mxCell>
        <mxCell id="VDcd1Ahy-NVAH4zSC_rA-32" value="Internet Gateway" style="text;html=1;align=center;verticalAlign=middle;resizable=0;points=[];autosize=1;strokeColor=none;" vertex="1" parent="1">
          <mxGeometry x="365" y="350" width="110" height="20" as="geometry" />
        </mxCell>
        <mxCell id="VDcd1Ahy-NVAH4zSC_rA-33" value="&lt;b&gt;NAT Gateway&lt;/b&gt;" style="text;html=1;align=center;verticalAlign=middle;resizable=0;points=[];autosize=1;strokeColor=none;" vertex="1" parent="1">
          <mxGeometry x="375" y="490" width="90" height="20" as="geometry" />
        </mxCell>
        <mxCell id="VDcd1Ahy-NVAH4zSC_rA-34" value="VPN Gateway" style="text;html=1;align=center;verticalAlign=middle;resizable=0;points=[];autosize=1;strokeColor=none;" vertex="1" parent="1">
          <mxGeometry x="215" y="350" width="90" height="20" as="geometry" />
        </mxCell>
        <mxCell id="VDcd1Ahy-NVAH4zSC_rA-35" value="Application Security Group" style="text;html=1;align=center;verticalAlign=middle;resizable=0;points=[];autosize=1;strokeColor=none;" vertex="1" parent="1">
          <mxGeometry x="179.49" y="810" width="160" height="20" as="geometry" />
        </mxCell>
        <mxCell id="VDcd1Ahy-NVAH4zSC_rA-36" value="Database Security Group" style="text;html=1;align=center;verticalAlign=middle;resizable=0;points=[];autosize=1;strokeColor=none;" vertex="1" parent="1">
          <mxGeometry x="505" y="810" width="150" height="20" as="geometry" />
        </mxCell>
        <mxCell id="VDcd1Ahy-NVAH4zSC_rA-37" value="" style="outlineConnect=0;dashed=0;verticalLabelPosition=bottom;verticalAlign=top;align=center;html=1;shape=mxgraph.aws3.shield;fillColor=#759C3E;gradientColor=none;" vertex="1" parent="1">
          <mxGeometry x="179.49" y="872.25" width="56" height="43.5" as="geometry" />
        </mxCell>
        <mxCell id="VDcd1Ahy-NVAH4zSC_rA-38" value="" style="outlineConnect=0;dashed=0;verticalLabelPosition=bottom;verticalAlign=top;align=center;html=1;shape=mxgraph.aws3.cloudwatch;fillColor=#759C3E;gradientColor=none;" vertex="1" parent="1">
          <mxGeometry x="466.49" y="860" width="60" height="63" as="geometry" />
        </mxCell>
        <mxCell id="VDcd1Ahy-NVAH4zSC_rA-39" value="" style="outlineConnect=0;dashed=0;verticalLabelPosition=bottom;verticalAlign=top;align=center;html=1;shape=mxgraph.aws3.cloudtrail;fillColor=#759C3E;gradientColor=none;" vertex="1" parent="1">
          <mxGeometry x="620.01" y="865" width="50" height="58" as="geometry" />
        </mxCell>
        <mxCell id="VDcd1Ahy-NVAH4zSC_rA-40" value="AWS Shield" style="text;html=1;align=center;verticalAlign=middle;resizable=0;points=[];autosize=1;strokeColor=none;" vertex="1" parent="1">
          <mxGeometry x="170" y="920.5" width="80" height="20" as="geometry" />
        </mxCell>
        <mxCell id="VDcd1Ahy-NVAH4zSC_rA-45" value="AWS WAF" style="text;html=1;align=center;verticalAlign=middle;resizable=0;points=[];autosize=1;strokeColor=none;" vertex="1" parent="1">
          <mxGeometry x="314.25" y="920.5" width="70" height="20" as="geometry" />
        </mxCell>
        <mxCell id="VDcd1Ahy-NVAH4zSC_rA-46" value="AWS CloudWatch" style="text;html=1;align=center;verticalAlign=middle;resizable=0;points=[];autosize=1;strokeColor=none;" vertex="1" parent="1">
          <mxGeometry x="436.49" y="920.5" width="110" height="20" as="geometry" />
        </mxCell>
        <mxCell id="VDcd1Ahy-NVAH4zSC_rA-47" value="AWS CloudTrail" style="text;html=1;align=center;verticalAlign=middle;resizable=0;points=[];autosize=1;strokeColor=none;" vertex="1" parent="1">
          <mxGeometry x="595.01" y="923" width="100" height="20" as="geometry" />
        </mxCell>
      </root>
    </mxGraphModel>
  </diagram>
</mxfile>
